PathFileType	4	(X/Y/Z)	Patient4_TMGait_0pt5_01_right_32.trc.trc
DataRate	CameraRate	NumFrames	NumMarkers	Units	OrigDataRate	OrigDataStartFrame	OrigNumFrames
75.268817204301	75.268817204301	5	33	mm	75.268817204301	124	       141
Frame#	Time	L.ASIS			Sacral			L.Shoulder			Chest			R.Shoulder			Neck			R.ASIS			R.Thigh.Superior			R.Thigh.Lateral			R.Thigh.Inferior			R.Patella			L.Thigh.Superior			L.Thigh.Lateral			L.Thigh.Inferior			L.Patella			L.Shank.Superior			L.Shank.Lateral			L.Shank.Inferior			R.Shank.Superior			R.Shank.Lateral			R.Shank.Inferior			R.Heel			R.Midfoot.Superior			R.Midfoot.Lateral			R.Toe			L.Heel			L.Midfoot.Lateral			L.Midfoot.Superior			L.Toe			L.Elbow			L.Wrist			R.Elbow			R.Wrist			
		X1	Y1	Z1	X2	Y2	Z2	X3	Y3	Z3	X4	Y4	Z4	X5	Y5	Z5	X6	Y6	Z6	X7	Y7	Z7	X8	Y8	Z8	X9	Y9	Z9	X10	Y10	Z10	X11	Y11	Z11	X12	Y12	Z12	X13	Y13	Z13	X14	Y14	Z14	X15	Y15	Z15	X16	Y16	Z16	X17	Y17	Z17	X18	Y18	Z18	X19	Y19	Z19	X20	Y20	Z20	X21	Y21	Z21	X22	Y22	Z22	X23	Y23	Z23	X24	Y24	Z24	X25	Y25	Z25	X26	Y26	Z26	X27	Y27	Z27	X28	Y28	Z28	X29	Y29	Z29	X30	Y30	Z30	X31	Y31	Z31	X32	Y32	Z32	X33	Y33	Z33	

124	43.704142857143	817.472704371865	953.293694780025	311.320330707564	597.556494924214	997.864349043080	460.576424996979	779.160850606349	1404.807128363047	253.438872290196	872.072702357758	1354.966686819855	426.872532003763	775.832907612644	1447.786924929694	586.996212068894	773.653831576735	1482.984709244826	395.577646081171	819.628299119313	933.551820677846	586.281196429819	892.221668202937	755.720568490057	560.941903291581	837.493235729059	634.973876814899	628.795892658149	927.158088764077	596.202078901442	551.780485273636	952.532299159671	510.581286476371	564.284252940683	817.866437752822	729.210369261841	335.675068308994	696.802515877577	637.145029486338	275.503055617952	756.122449430006	542.958497147374	336.803554156512	739.091717561403	475.684056019546	347.140267293626	706.401704700071	410.216489153013	338.904353915597	602.291712127647	306.223156851975	291.014081799009	645.155905275231	190.799658182244	363.212672777103	934.692766336388	419.519653035521	575.637416491747	876.685984637821	310.001192554054	640.557941720376	938.171018878348	219.855518583660	587.365054608172	830.771615243876	42.893398821941	565.706656762354	998.480896133758	107.420055864285	599.357924482691	917.042670019536	38.223901964326	637.240952817788	1121.575968996234	62.980950646672	621.543293730236	507.462547521949	37.589464413142	406.794927577708	582.561287201564	34.211459170724	327.082063496398	665.521938342210	95.768887746105	353.809700185200	793.800265861543	45.542826882917	329.152152981110	790.134364342253	1045.661356080827	149.816088235694	948.436581975776	836.021197479667	153.145223399208	636.843565035929	1156.589408892679	741.951681192186	652.648687987316	900.701867059413	797.155760158252	
125	43.717428571429	818.461785762079	952.615392894321	312.987556116171	598.829454699789	996.796472151273	463.040183805613	778.376338624486	1404.892956623872	257.165903797268	872.385966815767	1354.563138948259	429.965636018528	776.484209940743	1446.216395635035	590.891293458252	773.494795027887	1482.466808014971	399.709916116941	821.576107481641	932.263563005863	587.735638287573	893.262094884410	752.953299547462	561.407726313395	836.894421204508	633.192621658566	628.756446870500	925.705320539975	593.836397283753	551.073306839641	949.740151145847	507.722887230047	563.176560328086	818.616024617725	728.059545497326	337.096453933173	697.117317635256	636.271678965425	277.263991222900	756.182685839736	541.665467195498	338.433283149834	738.912620323948	473.807124930641	348.617951735697	704.982531495403	408.775642433479	340.272311909836	599.194629146755	306.498857647856	292.185662002403	640.237892330465	190.194617481019	363.905312769942	931.387727739560	416.672398728172	574.848519928332	872.671013694345	307.513174070716	639.787800441937	932.872224083256	216.939412025173	586.076999758904	822.969505804489	41.964288021217	564.680426570498	991.503393495386	104.255454591831	597.730017255173	909.118151410979	36.885088537103	636.457278865301	1114.200635726289	58.301885636588	620.335975273453	500.751940607264	37.859793794699	406.827174301095	575.920454768287	34.254246031734	327.242437557987	659.061543855830	95.669253971254	354.026741458666	787.273559228197	45.044827585785	329.157013991832	787.568972075337	1045.815228306832	152.609812226761	947.432159163078	837.223294973467	155.114097008981	641.158616103195	1153.187953495073	745.989070012362	663.341482323694	897.339200838573	799.946956116389	
126	43.730714285714	819.411231783746	952.129379405667	314.752262449008	600.001888529869	996.004031554070	465.460341964736	777.841517177142	1405.297283371077	260.985869131569	872.826509645250	1354.338825477626	433.163471690934	777.302097578590	1444.854713114106	594.884009464109	773.586586893473	1482.221110695470	403.963361984144	823.389875906205	931.374784628232	589.341204578003	894.332981174549	750.841539228309	562.019294437714	836.700738510403	632.010681150667	628.984738967271	924.580693835747	592.105049277318	550.576373897685	947.403626929869	505.497121845941	562.346088454191	819.707201882637	727.172430142734	338.733085936472	698.114046459158	635.354230926319	279.210491267445	757.257505105580	540.415175497929	340.198990778413	739.912377514346	471.791101513489	350.068773437759	704.435259256523	407.247621753670	341.709793128630	596.718249550738	306.990718710778	293.492531701181	635.702089750224	189.694778774326	364.607522580816	928.549083824759	414.471284303263	574.274201430844	869.329262605467	305.721105583845	639.473939647200	928.035789216025	214.689068936173	585.086146796399	815.663688226595	41.460507387334	564.061549790893	984.889297409475	101.845902406860	596.430147499338	901.721302199574	36.080283234525	636.001386981877	1107.265251741228	54.650313724401	619.421390762608	494.081624740557	38.548895045796	406.852038928808	569.334783486259	34.461519129735	327.429318561940	652.799326904222	95.624865868258	354.200508248370	780.821733999857	44.404176830919	329.161088352511	784.689631043220	1046.287555900830	155.475639539077	945.801729692209	838.530960700020	156.907908289875	646.196796114234	1149.711158507997	750.106275674842	674.879170450488	894.039100975571	802.674140106020	
127	43.744000000000	820.269113491819	951.878711840356	316.621457060884	601.047415849169	995.517972386225	467.852381194743	777.573334769776	1406.035409272366	264.845818999036	873.360867505870	1354.316307591112	436.432128811228	778.243141081346	1443.760570896955	598.912456164666	773.909266081422	1482.269093169088	408.269792890700	825.032110988114	930.929696623373	591.134501427782	895.430504768269	749.470015781364	562.817549066289	836.911024443638	631.415675621517	629.494544851958	923.819457221233	590.995425428120	550.362717785139	945.528325129775	503.885674297813	561.850506902546	821.126439446460	726.607538511568	340.553050257832	699.805136819732	634.424040008596	281.311500982909	759.429026582128	539.257192510952	342.023937355346	742.195614925122	469.680141469403	351.391906568158	704.836077549106	405.681080208777	343.149225918773	594.936965212925	307.775008945196	294.890185252715	631.616536801134	189.385089911941	365.272645994267	926.150663436883	412.883977515795	573.933388377001	866.579652897786	304.598812619394	639.596316201711	923.584682587168	213.069119271474	584.388456510922	808.799116946531	41.308387234219	563.792981651786	978.585124527474	100.158580833623	595.480674716529	894.793130926096	35.715150355255	635.825364937974	1100.707466059067	51.983914384178	618.799950037101	487.497173691179	39.839838717949	406.859501735166	562.830185472902	34.932627883129	327.630067517857	646.804338499210	95.669192289185	354.297529929855	774.445170355284	43.624857917661	329.165738920865	781.531232190346	1047.115219191038	158.397468252484	943.525144615885	839.936981227811	158.544905643949	651.910309913056	1146.262622945048	754.266849929490	687.250966591938	890.942486547823	805.312211376499	
128	43.757285714286	820.991588366040	951.882985164124	318.604164427091	601.959807400124	995.336176395471	470.255652922103	777.551570658400	1407.087299484719	268.699030038604	873.947143375267	1354.501181712780	439.737313798162	779.255230939471	1442.964071219756	602.921791896223	774.415285412642	1482.602990510687	412.565361572951	826.495343891175	930.927509907766	593.136282589313	896.535222780838	748.808052928498	563.845917849902	837.407010183281	631.310790220920	630.274329209978	923.367030827867	590.404056808520	550.492300317632	944.019846136560	502.795254365690	561.706823509704	822.867408964564	726.402584617723	342.513086363878	702.209619067231	633.506007864149	283.521647485046	762.766309716388	538.237339904048	343.830267459886	745.842698199631	467.527442799191	352.497163849297	706.262752013338	404.125066822500	344.523152247857	593.943584658765	308.922586946216	296.320246636227	628.060412215230	189.355735700520	365.852336828338	924.077560290207	411.814672587595	573.821144417337	864.238763083840	304.043784270550	640.075711497288	919.385655656809	211.983819524740	583.951519054688	802.274070867017	41.412607083826	563.793939295531	972.500546901723	99.092858241438	594.859044767703	888.226420300630	35.672238230330	635.863411017531	1094.426398991286	50.168732093904	618.441122345248	481.066672504461	41.933824519008	406.834596930550	556.443122257397	35.789279425796	327.825604661884	641.150998145325	95.843253240807	354.283669228605	768.136741382012	42.726888926000	329.173317801357	778.136050581994	1048.303336655183	161.352395295247	940.607136225159	841.416088419398	160.044485105861	658.219994503488	1142.934512193318	758.441479490988	700.454437702500	888.193581617708	807.828342918123	
